<svg xmlns="http://www.w3.org/2000/svg" viewBox="0 0 24 24"><path d="M5 3C3.9069372 3 3 3.9069372 3 5L3 19C3 20.093063 3.9069372 21 5 21L13 21L13 19L5 19L5 5L19 5L19 13L21 13L21 5C21 3.9069372 20.093063 3 19 3L5 3 z M 7 7L7 9L9 9L9 7L7 7 z M 11 7L11 9L13 9L13 7L11 7 z M 15 7L15 9L17 9L17 7L15 7 z M 7 11L7 13L9 13L9 11L7 11 z M 11 11L11 13L13 13L13 11L11 11 z M 15 11L15 13L17 13L17 11L15 11 z M 7 15L7 17L9 17L9 15L7 15 z M 11 15L11 17L13 17L13 15L11 15 z M 16 15L16 16L15 16L15 18L16 18L16 20L15 20L15 22L16 22L16 23L18 23L18 22L20 22L20 23L22 23L22 22L23 22L23 20L22 20L22 18L23 18L23 16L22 16L22 15L20 15L20 16L18 16L18 15L16 15 z M 18 18L20 18L20 20L18 20L18 18 z"/></svg>