<?xml version="1.0" standalone="no"?>
<!DOCTYPE svg PUBLIC "-//W3C//DTD SVG 20010904//EN"
 "http://www.w3.org/TR/2001/REC-SVG-20010904/DTD/svg10.dtd">
<svg version="1.0" xmlns="http://www.w3.org/2000/svg"
 width="289.000000pt" height="301.000000pt" viewBox="0 0 289.000000 301.000000"
 preserveAspectRatio="xMidYMid meet">
<metadata>
Created by potrace 1.16, written by Peter Selinger 2001-2019
</metadata>
<g transform="translate(0.000000,301.000000) scale(0.100000,-0.100000)"
fill="#000000" stroke="none">
<path d="M747 2882 c-52 -29 -99 -83 -138 -156 l-24 -46 -207 0 -208 0 0
-1260 0 -1260 1260 0 1260 0 0 1260 0 1260 -177 0 -178 0 -40 72 c-60 106
-146 158 -265 158 -119 0 -205 -52 -265 -158 l-40 -72 -265 0 -265 0 -32 58
c-49 90 -99 135 -169 155 -33 9 -92 17 -130 17 -57 0 -77 -5 -117 -28z m212
-102 c76 -38 118 -111 106 -186 -5 -37 -16 -56 -54 -94 -79 -79 -163 -79 -241
0 -79 78 -79 162 0 241 62 62 121 74 189 39z m1140 0 c76 -38 118 -111 106
-186 -5 -37 -16 -56 -54 -94 -79 -79 -163 -79 -242 0 -38 38 -49 56 -54 94
-12 76 30 147 110 189 41 22 88 21 134 -3z m-1483 -272 c40 -80 67 -111 125
-143 49 -27 62 -30 149 -30 87 0 100 3 149 30 58 32 85 63 125 143 l26 52 270
0 270 0 26 -52 c40 -80 67 -111 125 -143 49 -27 62 -30 149 -30 87 0 99 2 150
31 52 29 82 64 146 170 9 16 28 19 128 22 l116 4 0 -181 0 -181 -1140 0 -1140
0 0 180 0 180 150 0 150 0 26 -52z m1954 -1328 l0 -900 -840 0 -840 0 0 300 0
300 -300 0 -300 0 0 600 0 600 1140 0 1140 0 0 -900z m-1800 -610 c0 -104 -1
-190 -3 -190 -1 0 -88 86 -192 190 l-190 190 193 0 192 0 0 -190z m-90 -286
c0 -2 -88 -4 -195 -4 l-195 0 0 191 0 191 195 -187 c107 -103 195 -189 195
-191z"/>
<path d="M1310 1761 c-114 -37 -232 -161 -275 -289 -27 -85 -19 -200 22 -282
62 -126 172 -212 305 -238 68 -13 90 -14 142 -3 86 18 168 65 230 131 93 101
128 207 109 330 -16 98 -54 173 -129 246 -83 83 -144 107 -279 111 -55 1 -111
-1 -125 -6z m253 -130 c7 -7 2 -22 -16 -48 -37 -53 -373 -387 -379 -377 -24
41 -40 122 -34 172 18 151 113 255 249 270 69 8 164 -1 180 -17z m154 -192
c16 -65 4 -157 -26 -216 -46 -90 -162 -163 -261 -163 -33 0 -132 24 -154 37
-9 6 283 304 358 364 27 22 54 38 60 36 6 -2 17 -28 23 -58z"/>
</g>
</svg>
