<?xml version="1.0" standalone="no"?>
<!DOCTYPE svg PUBLIC "-//W3C//DTD SVG 20010904//EN"
 "http://www.w3.org/TR/2001/REC-SVG-20010904/DTD/svg10.dtd">
<svg version="1.0" xmlns="http://www.w3.org/2000/svg"
 width="757.000000pt" height="674.000000pt" viewBox="0 0 757.000000 674.000000"
 preserveAspectRatio="xMidYMid meet">
<metadata>
Created by potrace 1.16, written by Peter Selinger 2001-2019
</metadata>
<g transform="translate(0.000000,674.000000) scale(0.100000,-0.100000)"
fill="#000000" stroke="none">
<path d="M1370 5630 c-70 -12 -198 -65 -269 -112 -182 -119 -324 -316 -350
-485 -13 -87 -14 -274 -1 -362 10 -73 68 -202 132 -293 95 -135 321 -285 463
-308 138 -22 334 -7 465 36 181 61 347 214 430 397 110 243 102 521 -21 729
-103 175 -275 319 -444 371 -104 33 -296 46 -405 27z m288 -191 c114 -29 205
-82 298 -174 92 -91 135 -167 159 -280 34 -162 4 -348 -76 -466 -76 -112 -199
-206 -329 -251 -95 -33 -287 -33 -379 0 -79 29 -198 109 -253 171 -88 101
-154 245 -165 365 -14 151 69 372 175 467 106 94 225 157 347 184 66 15 114
12 223 -16z"/>
<path d="M5842 5619 c-161 -43 -257 -103 -388 -241 -63 -68 -92 -108 -134
-191 l-53 -105 -5 -170 c-6 -216 7 -310 55 -406 81 -161 211 -289 378 -372
126 -63 178 -74 345 -74 170 0 218 11 350 77 101 50 126 68 205 148 80 79 98
104 149 205 65 131 76 180 76 360 0 177 -12 237 -70 349 -111 217 -293 363
-524 421 -107 27 -282 27 -384 -1z m353 -183 c208 -55 400 -260 446 -476 25
-116 -15 -307 -88 -427 -127 -206 -313 -303 -554 -290 -167 10 -279 65 -400
196 -145 156 -199 347 -154 540 31 130 122 269 239 363 63 50 167 94 257 108
67 11 188 4 254 -14z"/>
<path d="M3650 5440 c-173 -20 -375 -102 -518 -210 -419 -315 -557 -874 -332
-1338 80 -165 159 -269 289 -377 165 -137 354 -217 557 -235 210 -19 388 3
542 66 322 133 558 402 649 742 24 87 27 115 27 267 0 153 -3 180 -27 270 -81
303 -293 567 -562 702 -188 95 -419 137 -625 113z m280 -191 c179 -33 343
-122 486 -264 183 -182 265 -374 267 -625 0 -153 -25 -264 -88 -390 -119 -234
-299 -391 -546 -475 -406 -139 -895 76 -1083 476 -132 278 -112 604 52 859 92
144 214 256 356 329 196 100 358 126 556 90z"/>
<path d="M5140 3896 c-36 -41 -114 -119 -174 -173 -121 -110 -173 -177 -238
-308 -84 -167 -94 -235 -43 -269 63 -41 114 -2 192 148 80 156 162 270 181
252 12 -13 16 -666 3 -666 -5 0 -33 9 -61 20 -131 52 -322 92 -502 106 l-87 7
-95 -62 c-352 -228 -700 -235 -1032 -20 -125 81 -133 83 -261 70 -375 -39
-599 -133 -817 -341 -232 -223 -370 -536 -432 -985 -13 -96 -15 -171 -11 -380
3 -154 10 -277 17 -302 l12 -42 67 -8 c98 -12 3806 -10 3861 3 74 16 75 20 74
374 0 299 -15 490 -45 604 -8 28 -7 42 1 50 8 8 181 12 598 14 l587 3 53 52
c63 62 69 82 78 245 l7 122 156 0 c180 0 227 9 244 48 16 36 15 436 -2 557
-26 193 -96 385 -191 525 -23 34 -77 100 -121 147 -43 47 -89 109 -103 138
-14 30 -46 71 -76 98 l-52 47 -862 0 -861 0 -65 -74z m1138 -113 l602 -6 0
-797 0 -797 -602 -6 c-331 -4 -693 -7 -805 -7 l-203 0 0 810 0 810 203 0 c112
0 474 -3 805 -7z m879 -399 c52 -98 106 -260 128 -379 9 -49 19 -163 22 -252
l6 -163 -122 0 -123 0 4 423 c2 232 8 430 12 440 14 29 29 15 73 -69z m-3777
-1180 c170 -344 319 -638 330 -655 19 -25 28 -29 70 -29 73 0 46 -48 475 840
81 168 165 342 186 387 l38 82 38 -5 c192 -27 321 -60 454 -116 l96 -41 6
-236 c5 -258 15 -313 64 -372 44 -52 81 -62 254 -67 l155 -4 13 -72 c60 -341
81 -583 61 -718 l-12 -88 -1828 0 -1828 0 -9 68 c-26 218 32 667 115 892 72
194 137 303 255 427 127 134 277 227 437 273 58 17 197 43 313 59 5 0 147
-281 317 -625z m66 434 c53 -20 82 -22 304 -26 204 -3 256 -1 310 13 36 9 80
19 97 22 l33 5 -128 -263 c-70 -145 -161 -335 -202 -421 -41 -87 -78 -154 -81
-150 -7 6 -200 406 -348 716 -33 69 -56 126 -52 126 4 0 34 -10 67 -22z"/>
<path d="M6010 3515 c-12 -14 -16 -63 -19 -231 l-3 -212 -214 -4 c-241 -3
-243 -4 -251 -79 -9 -87 23 -98 283 -99 l182 0 7 -224 7 -224 49 -6 c29 -4 57
-2 69 4 40 21 45 48 48 252 l4 196 197 4 c167 2 201 6 224 21 48 31 48 103 0
134 -23 15 -57 19 -224 21 l-197 4 -3 204 c-4 193 -5 205 -26 225 -29 30 -113
38 -133 14z"/>
<path d="M1020 3923 c-118 -12 -280 -47 -351 -74 -337 -130 -553 -471 -589
-930 -20 -265 -9 -448 29 -480 33 -27 180 -31 932 -23 l717 7 6 48 c4 28 2 57
-4 68 -21 40 -74 43 -809 48 l-704 5 6 156 c7 176 34 352 70 457 71 207 205
366 380 449 101 48 147 61 249 72 l67 7 88 -184 c155 -327 341 -693 363 -716
30 -33 75 -30 109 5 14 16 50 71 78 123 49 88 297 600 345 712 l22 50 90 -6
c166 -11 293 -72 422 -201 69 -70 89 -98 146 -211 37 -72 75 -138 85 -147 10
-9 37 -19 59 -23 57 -9 74 10 74 79 0 151 -155 400 -329 529 -140 103 -294
155 -493 164 l-126 6 -104 -56 c-151 -81 -227 -101 -348 -94 -112 6 -197 35
-341 118 -48 27 -90 48 -95 47 -5 0 -25 -3 -44 -5z m408 -344 c56 -8 101 -8
192 2 66 7 123 10 126 6 4 -4 -44 -110 -107 -237 l-114 -231 -113 223 c-62
123 -113 231 -112 240 0 13 6 16 28 13 15 -2 60 -9 100 -16z"/>
</g>
</svg>
