<?xml version="1.0" standalone="no"?>
<!DOCTYPE svg PUBLIC "-//W3C//DTD SVG 20010904//EN"
 "http://www.w3.org/TR/2001/REC-SVG-20010904/DTD/svg10.dtd">
<svg version="1.0" xmlns="http://www.w3.org/2000/svg"
 width="727.000000pt" height="649.000000pt" viewBox="0 0 727.000000 649.000000"
 preserveAspectRatio="xMidYMid meet">
<metadata>
Created by potrace 1.16, written by Peter Selinger 2001-2019
</metadata>
<g transform="translate(0.000000,649.000000) scale(0.100000,-0.100000)"
fill="#000000" stroke="none">
<path d="M444 6231 c-199 -8 -227 -16 -241 -69 -10 -35 -10 -929 0 -964 15
-54 38 -60 275 -69 283 -11 3461 -11 3744 0 237 9 260 15 275 69 5 15 8 237 8
494 0 459 0 467 -21 495 -13 17 -36 31 -60 37 -46 10 -3717 16 -3980 7z m3846
-541 l0 -330 -1940 0 -1940 0 0 330 0 330 1940 0 1940 0 0 -330z"/>
<path d="M5656 6187 c-170 -178 -600 -685 -652 -770 -30 -49 -35 -65 -30 -95
10 -63 58 -82 213 -82 l102 0 3 -892 c3 -976 0 -927 61 -972 28 -20 39 -21
387 -21 348 0 359 1 387 21 59 44 57 18 61 980 l3 882 124 3 c141 5 173 18
189 81 8 33 5 41 -39 104 -79 114 -394 494 -567 684 -123 135 -172 151 -242
77z m122 -284 c40 -38 170 -186 281 -317 63 -76 88 -112 79 -117 -7 -3 -33 -9
-57 -13 -62 -9 -97 -31 -105 -63 -8 -37 -25 -983 -26 -1445 l0 -368 -220 0
-220 0 -1 753 c0 413 -4 826 -7 915 -8 187 -12 195 -100 208 -26 3 -53 10 -60
13 -20 11 365 461 394 461 8 0 27 -12 42 -27z"/>
<path d="M373 4111 c-84 -3 -147 -11 -153 -17 -7 -7 -16 -56 -20 -110 -13
-138 -12 -789 0 -855 18 -92 14 -90 282 -101 259 -11 3912 -4 3966 8 18 3 38
16 45 28 17 30 17 982 0 1012 -8 15 -27 24 -55 29 -55 8 -3877 14 -4065 6z
m3917 -541 l0 -330 -1940 0 -1940 0 0 330 0 330 1940 0 1940 0 0 -330z"/>
<path d="M5530 2789 c-68 -12 -128 -40 -162 -76 -31 -33 -58 -109 -58 -162 0
-52 -35 -82 -175 -151 -101 -51 -109 -53 -138 -41 -162 67 -252 51 -349 -60
l-51 -59 -1991 -1 c-1095 0 -2073 -4 -2174 -8 -225 -9 -220 -6 -233 -138 -5
-49 -8 -374 -7 -722 l3 -634 38 -20 c62 -32 322 -36 2262 -37 985 0 1861 -5
1948 -9 l157 -9 60 -56 c43 -39 76 -60 115 -72 60 -19 84 -16 202 26 l61 22
114 -62 c62 -34 121 -70 131 -80 11 -10 25 -47 32 -88 17 -87 33 -119 83 -164
36 -33 48 -37 117 -43 42 -4 169 -5 283 -3 238 6 273 14 317 78 29 42 55 118
55 162 0 40 37 75 141 131 111 61 132 64 218 38 80 -24 157 -27 204 -7 45 18
106 90 187 221 80 127 138 247 146 297 12 71 -50 171 -148 239 -21 15 -23 25
-26 124 -6 163 0 189 53 225 59 40 102 102 116 166 l12 54 -56 114 c-67 137
-190 330 -236 368 -17 15 -51 33 -74 39 -53 14 -148 4 -198 -22 -21 -10 -45
-19 -52 -19 -24 0 -229 108 -258 136 -21 20 -27 37 -32 85 -9 98 -67 176 -157
209 -44 16 -402 23 -480 9z m408 -224 c1 -1 8 -35 15 -76 21 -117 51 -158 157
-216 36 -20 101 -58 145 -84 131 -78 209 -86 323 -34 30 14 56 25 57 25 6 0
107 -153 150 -229 l49 -84 -88 -84 -88 -84 4 -217 c5 -274 12 -296 126 -369
28 -18 52 -38 52 -44 0 -11 -62 -118 -148 -256 l-44 -71 -67 31 c-89 41 -184
44 -252 7 -160 -87 -198 -109 -253 -145 -33 -22 -74 -59 -91 -83 -25 -37 -30
-55 -33 -118 l-4 -74 -208 0 -207 0 -6 64 c-8 86 -32 140 -79 181 -22 18 -121
75 -220 125 -201 102 -186 100 -316 49 l-73 -27 -58 86 c-70 105 -141 225
-141 238 0 5 25 22 55 38 41 21 63 41 83 75 27 45 27 49 30 255 3 175 1 215
-13 251 -15 41 -64 94 -129 140 l-29 20 23 45 c21 41 157 269 166 279 2 2 36
-9 75 -24 117 -47 154 -42 334 49 245 123 286 167 294 305 l3 73 202 -7 c110
-4 202 -8 204 -10z m-1525 -560 c24 -6 27 -11 22 -29 -4 -11 -10 -57 -12 -102
-4 -73 -2 -86 21 -133 20 -38 40 -60 80 -86 30 -19 56 -44 60 -57 8 -30 6
-236 -3 -268 -4 -14 -25 -35 -51 -50 -28 -16 -57 -45 -75 -75 -26 -43 -30 -57
-30 -124 0 -42 3 -90 7 -107 6 -29 4 -33 -20 -39 -15 -5 -921 -10 -2014 -12
l-1988 -4 0 551 0 551 1988 -4 c1093 -2 2000 -7 2015 -12z"/>
<path d="M5560 2047 c-111 -41 -151 -67 -240 -156 -161 -162 -218 -340 -175
-545 29 -138 101 -257 207 -342 130 -106 264 -150 421 -141 304 17 537 240
572 548 20 169 -78 399 -217 512 -123 99 -224 137 -388 143 -103 4 -122 2
-180 -19z m265 -211 c107 -28 172 -74 230 -165 23 -36 51 -92 61 -124 16 -50
16 -67 6 -125 -23 -136 -94 -237 -205 -292 -203 -100 -432 -24 -523 173 -26
56 -29 72 -29 167 0 96 3 110 28 159 89 168 264 252 432 207z"/>
</g>
</svg>
