<svg xmlns="http://www.w3.org/2000/svg" viewBox="0 0 80 80"><path d="M7.71875 9L9.21875 15L10 15L10 69L11 69L45 69L46 69L49.832031 69 A 1.0001 1.0001 0 0 0 50.158203 69L63.832031 69 A 1.0001 1.0001 0 0 0 64.158203 69L72 69L72 55L70 55L70 27L70.78125 27L72.28125 21L46 21L46 15L46.78125 15L48.28125 9L7.71875 9 z M 10.28125 11L45.71875 11L45.21875 13L44 13C43.449 13 43 13.449 43 14C43 14.551 43.449 15 44 15L44 67L12 67L12 15C12.551 15 13 14.551 13 14C13 13.449 12.551 13 12 13L10.78125 13L10.28125 11 z M 16 13C15.449 13 15 13.449 15 14C15 14.551 15.449 15 16 15C16.551 15 17 14.551 17 14C17 13.449 16.551 13 16 13 z M 20 13C19.449 13 19 13.449 19 14C19 14.551 19.449 15 20 15C20.551 15 21 14.551 21 14C21 13.449 20.551 13 20 13 z M 24 13C23.449 13 23 13.449 23 14C23 14.551 23.449 15 24 15C24.551 15 25 14.551 25 14C25 13.449 24.551 13 24 13 z M 28 13C27.449 13 27 13.449 27 14C27 14.551 27.449 15 28 15C28.551 15 29 14.551 29 14C29 13.449 28.551 13 28 13 z M 32 13C31.449 13 31 13.449 31 14C31 14.551 31.449 15 32 15C32.551 15 33 14.551 33 14C33 13.449 32.551 13 32 13 z M 36 13C35.449 13 35 13.449 35 14C35 14.551 35.449 15 36 15C36.551 15 37 14.551 37 14C37 13.449 36.551 13 36 13 z M 40 13C39.449 13 39 13.449 39 14C39 14.551 39.449 15 40 15C40.551 15 41 14.551 41 14C41 13.449 40.551 13 40 13 z M 16 19L16 20L16 27L22 27L22 19L16 19 z M 25 19L25 20L25 27L31 27L31 19L25 19 z M 34 19L34 20L34 27L40 27L40 19L34 19 z M 18 21L20 21L20 25L18 25L18 21 z M 27 21L29 21L29 25L27 25L27 21 z M 36 21L38 21L38 25L36 25L36 21 z M 46 23L69.71875 23L69.21875 25L68 25C67.449 25 67 25.449 67 26C67 26.551 67.449 27 68 27L68 55C67.449 55 67 55.449 67 56C67 56.551 67.449 57 68 57L70 57L70 67L65 67L65 60L49 60L49 67L46 67L46 23 z M 48 25C47.449 25 47 25.449 47 26C47 26.551 47.449 27 48 27C48.551 27 49 26.551 49 26C49 25.449 48.551 25 48 25 z M 52 25C51.449 25 51 25.449 51 26C51 26.551 51.449 27 52 27C52.551 27 53 26.551 53 26C53 25.449 52.551 25 52 25 z M 56 25C55.449 25 55 25.449 55 26C55 26.551 55.449 27 56 27C56.551 27 57 26.551 57 26C57 25.449 56.551 25 56 25 z M 60 25C59.449 25 59 25.449 59 26C59 26.551 59.449 27 60 27C60.551 27 61 26.551 61 26C61 25.449 60.551 25 60 25 z M 64 25C63.449 25 63 25.449 63 26C63 26.551 63.449 27 64 27C64.551 27 65 26.551 65 26C65 25.449 64.551 25 64 25 z M 16 31L16 32L16 39L22 39L22 31L16 31 z M 25 31L25 32L25 39L31 39L31 31L25 31 z M 34 31L34 32L34 39L40 39L40 31L34 31 z M 49 31L49 32L49 39L55 39L55 31L49 31 z M 58 31L58 32L58 39L64 39L64 31L58 31 z M 18 33L20 33L20 37L18 37L18 33 z M 27 33L29 33L29 37L27 37L27 33 z M 36 33L38 33L38 37L36 37L36 33 z M 51 33L53 33L53 37L51 37L51 33 z M 60 33L62 33L62 37L60 37L60 33 z M 16 43L16 44L16 51L22 51L22 43L16 43 z M 25 43L25 44L25 51L31 51L31 43L25 43 z M 34 43L34 44L34 51L40 51L40 43L34 43 z M 49 43L49 44L49 51L55 51L55 43L49 43 z M 58 43L58 44L58 51L64 51L64 43L58 43 z M 18 45L20 45L20 49L18 49L18 45 z M 27 45L29 45L29 49L27 49L27 45 z M 36 45L38 45L38 49L36 49L36 45 z M 51 45L53 45L53 49L51 49L51 45 z M 60 45L62 45L62 49L60 49L60 45 z M 16 55L16 56L16 63L22 63L22 55L16 55 z M 25 55L25 56L25 63L31 63L31 55L25 55 z M 34 55L34 56L34 63L40 63L40 55L34 55 z M 48 55C47.449 55 47 55.449 47 56C47 56.551 47.449 57 48 57C48.551 57 49 56.551 49 56C49 55.449 48.551 55 48 55 z M 52 55C51.449 55 51 55.449 51 56C51 56.551 51.449 57 52 57C52.551 57 53 56.551 53 56C53 55.449 52.551 55 52 55 z M 56 55C55.449 55 55 55.449 55 56C55 56.551 55.449 57 56 57C56.551 57 57 56.551 57 56C57 55.449 56.551 55 56 55 z M 60 55C59.449 55 59 55.449 59 56C59 56.551 59.449 57 60 57C60.551 57 61 56.551 61 56C61 55.449 60.551 55 60 55 z M 64 55C63.449 55 63 55.449 63 56C63 56.551 63.449 57 64 57C64.551 57 65 56.551 65 56C65 55.449 64.551 55 64 55 z M 18 57L20 57L20 61L18 61L18 57 z M 27 57L29 57L29 61L27 61L27 57 z M 36 57L38 57L38 61L36 61L36 57 z M 51 62L56 62C56 62.551 56.449 63 57 63C57.551 63 58 62.551 58 62L63 62L63 67L57 67L51 67L51 62 z M 57 67C57.551 67 58 66.551 58 66C58 65.449 57.551 65 57 65C56.449 65 56 65.449 56 66C56 66.551 56.449 67 57 67 z"/></svg>