<svg xmlns="http://www.w3.org/2000/svg" viewBox="0 0 32 32"><path d="M5 6C3.355469 6 2 7.355469 2 9L2 23C2 24.644531 3.355469 26 5 26L27 26C28.644531 26 30 24.644531 30 23L30 9C30 7.355469 28.644531 6 27 6 Z M 5 8L27 8C27.566406 8 28 8.433594 28 9L28 23C28 23.566406 27.566406 24 27 24L5 24C4.433594 24 4 23.566406 4 23L4 9C4 8.433594 4.433594 8 5 8 Z M 12 10L10.167969 14L5.691406 14.582031L9 17.597656L8 22L12 19.75L16 22L15 17.597656L18.308594 14.582031L13.832031 14 Z M 12 14.800781L12.015625 14.832031L12.472656 15.839844L13.574219 15.984375L13.769531 16.011719L13.652344 16.117188L12.789063 16.902344L13.046875 18.039063L13.050781 18.046875L12.980469 18.007813L12 17.457031L11.019531 18.007813L10.949219 18.046875L10.953125 18.039063L11.207031 16.902344L10.347656 16.117188L10.226563 16.011719L10.425781 15.984375L11.523438 15.839844L11.984375 14.832031 Z M 18 20L18 22L20 22L20 20 Z M 21 20L21 22L23 22L23 20 Z M 24 20L24 22L26 22L26 20Z"/></svg>