<?xml version="1.0"?>
<svg xmlns="http://www.w3.org/2000/svg" viewBox="0 0 50 50">
    <path style="line-height:normal;text-indent:0;text-align:start;text-decoration-line:none;text-decoration-style:solid;text-decoration-color:#000;text-transform:none;block-progression:tb;isolation:auto;mix-blend-mode:normal" d="M 13 3 L 13 8 L 8 8 L 8 45 L 23.1875 45 C 23.604868 46.157321 24.706873 47 26 47 L 45 47 C 46.64497 47 48 45.64497 48 44 L 48 31 C 48 29.35503 46.64497 28 45 28 L 42 28 L 42 8 L 37 8 L 37 3 L 13 3 z M 15 5 L 35 5 L 35 8 L 17 8 L 17 10 L 36 10 L 40 10 L 40 28 L 26 28 C 24.35503 28 23 29.35503 23 31 L 23 43 L 10 43 L 10 10 L 15 10 L 15 5 z M 14 13 L 14 15 L 18 15 L 18 13 L 14 13 z M 23 13 L 23 15 L 27 15 L 27 13 L 23 13 z M 32 13 L 32 15 L 36 15 L 36 13 L 32 13 z M 14 18 L 14 20 L 18 20 L 18 18 L 14 18 z M 23 18 L 23 20 L 27 20 L 27 18 L 23 18 z M 32 18 L 32 20 L 36 20 L 36 18 L 32 18 z M 14 23 L 14 25 L 18 25 L 18 23 L 14 23 z M 23 23 L 23 25 L 27 25 L 27 23 L 23 23 z M 32 23 L 32 25 L 36 25 L 36 23 L 32 23 z M 14 28 L 14 30 L 18 30 L 18 28 L 14 28 z M 26 30 L 45 30 C 45.56503 30 46 30.43497 46 31 L 46 44 C 46 44.56503 45.56503 45 45 45 L 26 45 C 25.43497 45 25 44.56503 25 44 L 25 31 C 25 30.43497 25.43497 30 26 30 z M 35.474609 32 C 33.011609 32.044 32.714906 33.811938 33.253906 35.835938 C 33.158906 35.892938 33.000016 36.072531 33.041016 36.394531 C 33.116016 36.994531 33.364391 37.14425 33.525391 37.15625 C 33.586391 37.71525 33.964969 38.376469 34.167969 38.480469 C 34.167969 38.879469 34.183578 39.184094 34.142578 39.621094 C 33.656578 40.898094 30.153 40.539 30 43 L 41 43 C 40.848 40.539 37.358094 40.897094 36.871094 39.621094 C 36.831094 39.184094 36.845703 38.881422 36.845703 38.482422 C 37.047703 38.378422 37.411609 37.717203 37.474609 37.158203 C 37.634609 37.146203 37.884984 36.993531 37.958984 36.394531 C 37.998984 36.072531 37.841094 35.892937 37.746094 35.835938 C 38.005094 35.074937 38.545047 32.721516 36.748047 32.478516 C 36.563047 32.160516 36.089609 32 35.474609 32 z M 14 33 L 14 35 L 18 35 L 18 33 L 14 33 z M 14 38 L 14 40 L 18 40 L 18 38 L 14 38 z"/>
</svg>
