<svg xmlns="http://www.w3.org/2000/svg" viewBox="0 0 48 48"><path d="M12.5 6 A 1.50015 1.50015 0 1 0 12.5 9L35.5 9 A 1.50015 1.50015 0 1 0 35.5 6L12.5 6 z M 9.5 11 A 1.50015 1.50015 0 1 0 9.5 14L38.5 14 A 1.50015 1.50015 0 1 0 38.5 11L9.5 11 z M 8.5 16C6.5850452 16 5 17.585045 5 19.5L5 38.5C5 40.414955 6.5850452 42 8.5 42L39.5 42C41.414955 42 43 40.414955 43 38.5L43 19.5C43 17.585045 41.414955 16 39.5 16L8.5 16 z M 8.5 19L39.5 19C39.795045 19 40 19.204955 40 19.5L40 38.5C40 38.795045 39.795045 39 39.5 39L8.5 39C8.2049548 39 8 38.795045 8 38.5L8 19.5C8 19.204955 8.2049548 19 8.5 19 z"/></svg>