<?xml version="1.0" standalone="no"?>
<!DOCTYPE svg PUBLIC "-//W3C//DTD SVG 20010904//EN"
 "http://www.w3.org/TR/2001/REC-SVG-20010904/DTD/svg10.dtd">
<svg version="1.0" xmlns="http://www.w3.org/2000/svg"
 width="834.000000pt" height="823.000000pt" viewBox="0 0 834.000000 823.000000"
 preserveAspectRatio="xMidYMid meet">
<metadata>
Created by potrace 1.16, written by Peter Selinger 2001-2019
</metadata>
<g transform="translate(0.000000,823.000000) scale(0.100000,-0.100000)"
fill="#000000" stroke="none">
<path d="M1430 8040 c-166 -26 -284 -89 -386 -204 -103 -115 -134 -213 -141
-441 -10 -307 43 -470 214 -674 37 -43 51 -67 44 -74 -5 -5 -85 -25 -177 -44
-313 -63 -517 -165 -647 -323 -67 -81 -88 -140 -99 -274 -13 -167 -4 -1007 11
-1068 17 -65 46 -104 112 -150 l56 -40 627 -5 626 -6 0 -643 0 -643 -42 -5
c-24 -3 -81 -8 -128 -11 -267 -18 -435 -124 -540 -340 -49 -100 -60 -168 -60
-366 0 -121 4 -172 19 -231 39 -151 106 -278 207 -395 62 -71 70 -62 -86 -93
-208 -41 -332 -79 -448 -136 -97 -47 -126 -67 -191 -132 -53 -52 -91 -102
-121 -156 l-43 -80 -1 -570 -1 -571 23 -49 c36 -79 66 -110 140 -149 l70 -37
1091 0 1092 0 58 30 c71 35 113 76 149 144 l27 51 3 363 3 362 1299 0 1299 0
3 -362 3 -363 27 -51 c36 -68 78 -109 149 -144 l58 -30 1092 0 1091 0 70 37
c74 39 104 70 140 149 l23 49 -1 571 -1 572 -44 76 c-132 232 -323 339 -759
426 -58 11 -113 23 -122 26 -15 4 -7 18 41 74 100 116 177 267 207 409 16 78
19 336 4 429 -23 138 -139 315 -259 391 -89 58 -257 101 -390 101 -27 0 -63 3
-80 6 l-31 7 0 642 0 642 626 6 627 5 56 40 c83 58 108 114 122 267 14 150 6
968 -10 1040 -31 141 -134 269 -284 354 -110 62 -300 125 -483 161 -87 16
-159 32 -161 33 -2 2 26 39 63 83 122 147 180 271 205 443 15 105 6 351 -16
440 -37 152 -148 287 -296 360 -123 60 -191 75 -339 74 -342 -2 -565 -160
-639 -454 -27 -106 -35 -236 -22 -356 23 -198 77 -338 184 -470 90 -112 94
-120 59 -127 -392 -77 -541 -129 -689 -241 -80 -60 -127 -114 -166 -192 l-31
-63 -1326 0 -1325 0 -33 65 c-105 201 -354 338 -749 410 -75 13 -137 26 -139
28 -2 2 19 30 47 63 167 194 231 371 232 639 0 253 -55 410 -188 538 -57 55
-178 117 -275 142 -76 20 -252 28 -330 15z m255 -284 c185 -49 266 -176 266
-416 -1 -187 -55 -325 -176 -446 -58 -58 -83 -76 -126 -88 -123 -37 -203 -13
-306 90 -125 127 -173 258 -173 475 0 116 0 117 40 197 47 94 105 151 184 181
62 24 214 28 291 7z m5320 -19 c93 -43 121 -70 162 -155 36 -74 38 -82 41
-197 6 -195 -32 -322 -133 -448 -104 -130 -211 -171 -345 -131 -44 13 -68 30
-126 88 -121 121 -175 260 -175 451 -1 216 76 348 237 410 29 11 71 14 159 12
106 -3 127 -6 180 -30z m-5214 -1361 c178 -17 375 -54 499 -96 157 -52 257
-127 304 -229 21 -45 21 -57 21 -533 0 -267 -3 -490 -7 -494 -4 -4 -64 -9
-133 -12 l-125 -5 0 349 c0 207 -4 364 -10 386 -29 101 -171 129 -234 45 -20
-28 -21 -41 -25 -403 l-3 -374 -518 0 -518 0 -4 363 c-5 392 -10 429 -58 455
-34 18 -135 9 -161 -14 -38 -34 -42 -78 -46 -446 l-5 -358 -82 0 c-46 0 -104
3 -130 6 l-46 7 0 518 0 519 67 69 c38 38 92 80 123 96 256 130 681 188 1091
151z m5214 4 c255 -21 509 -78 655 -147 55 -26 93 -54 143 -104 l67 -69 0
-519 0 -518 -46 -7 c-26 -3 -84 -6 -130 -6 l-82 0 -5 358 c-4 368 -9 412 -46
446 -26 23 -127 32 -161 14 -49 -26 -53 -63 -58 -455 l-4 -363 -517 0 -518 0
-6 363 c-3 212 -10 377 -17 398 -15 53 -33 64 -106 64 -56 0 -66 -3 -93 -29
-17 -17 -36 -46 -41 -65 -6 -21 -10 -186 -10 -385 l0 -349 -125 5 c-69 3 -129
8 -133 12 -4 4 -7 220 -7 479 0 504 3 536 50 608 13 20 51 54 84 76 223 149
673 228 1106 193z m-1513 -962 c3 -445 3 -454 25 -498 34 -68 80 -118 137
-148 l51 -27 368 -3 367 -3 0 -686 0 -686 -83 -81 c-69 -67 -92 -97 -129 -173
-64 -126 -70 -168 -66 -401 3 -190 5 -200 34 -284 39 -110 103 -222 172 -301
29 -34 51 -68 50 -77 -2 -11 -44 -24 -158 -47 -305 -63 -474 -137 -601 -263
-99 -97 -139 -176 -169 -333 l-11 -57 -1288 0 -1289 0 -21 95 c-27 114 -67
197 -128 266 -127 141 -315 227 -633 291 -85 17 -159 34 -164 38 -4 5 24 48
64 97 83 102 150 232 180 347 16 64 20 111 20 251 0 212 -8 255 -66 374 -38
78 -60 107 -130 176 l-84 82 0 686 0 686 363 3 c356 3 363 3 414 27 61 27 109
76 144 146 l24 50 3 453 3 452 1299 0 1299 0 3 -452z m-3829 -2263 c127 -27
192 -77 254 -199 34 -67 43 -146 32 -268 -21 -226 -119 -399 -264 -468 -83
-40 -172 -42 -243 -6 -69 35 -173 149 -218 240 -32 66 -38 90 -46 182 -12 129
2 273 32 341 65 147 253 221 453 178z m5338 -24 c108 -41 175 -126 199 -249
18 -89 8 -269 -20 -355 -43 -138 -144 -268 -246 -317 -70 -34 -160 -33 -231 3
-150 77 -261 276 -279 497 -10 127 35 278 105 353 25 28 100 71 151 88 14 5
79 7 145 5 93 -2 132 -8 176 -25z m-5076 -1376 c384 -55 585 -147 662 -304
l28 -56 0 -487 c0 -267 -3 -490 -7 -494 -4 -4 -64 -9 -132 -12 l-124 -5 -4
364 c-3 312 -6 369 -20 401 -20 45 -62 68 -122 68 -36 0 -52 -6 -78 -29 -29
-26 -33 -36 -39 -107 -4 -44 -8 -217 -8 -386 l-1 -308 -519 0 -519 0 -4 368
c-3 343 -4 370 -23 407 -36 72 -131 82 -202 21 -37 -32 -42 -89 -42 -478 l-1
-318 -84 0 c-46 0 -104 3 -130 6 l-46 7 0 519 0 518 73 74 c54 55 91 82 147
109 144 69 354 118 590 138 130 11 483 2 605 -16z m5250 1 c322 -43 570 -141
648 -254 53 -77 52 -63 51 -589 0 -271 -3 -495 -7 -499 -4 -4 -63 -9 -131 -12
l-124 -5 -3 375 c-4 335 -6 377 -22 401 -53 81 -194 80 -230 -1 -8 -18 -12
-145 -15 -400 l-4 -372 -517 0 -518 0 -6 372 c-3 254 -9 381 -17 399 -25 55
-117 77 -181 43 -61 -31 -64 -50 -67 -451 l-3 -363 -83 0 c-46 0 -104 3 -130
6 l-46 7 0 515 0 515 38 49 c109 145 387 247 753 278 141 12 479 4 614 -14z"/>
<path d="M4045 4931 c-27 -4 -60 -12 -72 -19 -25 -14 -53 -85 -78 -197 -27
-124 -41 -146 -103 -169 l-52 -19 -53 33 c-140 89 -189 113 -237 118 -37 3
-57 0 -77 -13 -101 -65 -248 -225 -259 -281 -8 -44 6 -77 77 -189 78 -121 82
-133 62 -190 -8 -25 -25 -53 -38 -61 -12 -8 -77 -26 -145 -41 -204 -44 -213
-58 -208 -308 4 -222 6 -224 208 -276 140 -35 173 -54 190 -104 15 -46 7 -68
-69 -184 -112 -170 -108 -196 43 -347 116 -116 170 -149 225 -139 20 3 91 38
159 77 108 61 127 69 157 64 64 -12 81 -38 121 -186 39 -148 54 -184 81 -195
27 -11 281 -19 358 -10 83 9 98 22 125 117 68 237 68 236 110 258 22 11 47 20
57 20 10 0 68 -29 128 -65 143 -85 170 -93 232 -70 61 22 267 225 277 272 9
40 -21 118 -79 208 -71 110 -79 133 -66 177 16 53 49 71 191 107 202 52 204
54 208 276 5 250 -4 264 -208 308 -68 15 -133 33 -145 41 -13 8 -30 36 -39 63
-16 46 -16 49 7 93 13 25 47 81 75 126 62 95 72 136 46 190 -23 49 -198 224
-246 247 -76 36 -120 21 -315 -103 l-53 -33 -52 19 c-64 23 -71 35 -109 192
-45 182 -55 190 -251 196 -73 3 -155 1 -183 -3z m182 -346 c12 -38 29 -96 38
-128 24 -87 50 -108 208 -172 76 -30 152 -55 168 -55 39 0 83 19 184 80 135
81 140 71 47 -87 -73 -126 -77 -162 -29 -269 19 -44 42 -103 52 -132 19 -61
53 -105 92 -121 16 -6 77 -24 137 -40 59 -16 113 -34 119 -40 21 -21 -16 -39
-136 -65 -121 -26 -164 -47 -184 -88 -42 -83 -106 -261 -110 -303 -3 -46 1
-58 57 -155 92 -161 81 -173 -69 -82 -89 54 -98 57 -155 56 -93 -2 -292 -81
-344 -137 -14 -15 -31 -56 -43 -103 -41 -164 -49 -184 -68 -184 -23 0 -33 25
-61 153 -15 68 -29 106 -47 128 -50 59 -249 141 -349 143 -57 1 -66 -2 -155
-56 -150 -91 -161 -79 -69 82 56 97 60 109 57 155 -5 66 -107 312 -142 342
-14 12 -42 26 -63 31 -20 5 -77 19 -126 31 -145 34 -142 48 20 92 60 16 121
34 137 40 41 17 73 61 97 136 13 37 36 95 52 127 44 88 38 136 -34 258 -93
159 -88 169 46 89 117 -70 141 -81 179 -81 40 0 299 100 329 127 31 28 46 64
69 160 39 169 60 184 96 68z"/>
<path d="M4032 4205 c-125 -35 -188 -71 -272 -155 -55 -54 -88 -99 -120 -160
l-45 -85 0 -190 0 -191 39 -79 c31 -62 59 -100 125 -166 130 -129 251 -178
441 -179 167 0 288 51 416 175 69 68 89 95 129 177 l47 98 -4 177 -4 178 -33
65 c-41 79 -118 178 -175 225 -88 72 -274 135 -396 134 -36 0 -102 -11 -148
-24z m300 -288 c71 -32 127 -88 164 -163 24 -51 28 -71 28 -144 -1 -101 -19
-150 -85 -224 -77 -87 -201 -130 -308 -106 -201 44 -323 236 -268 421 32 104
117 197 215 235 57 22 183 12 254 -19z"/>
</g>
</svg>
