<svg xmlns="http://www.w3.org/2000/svg" viewBox="0 0 80 80"><path d="M15 9L15 71L65 71L65 9 Z M 17 11L63 11L63 69L17 69 Z M 22 13C21.449219 13 21 13.449219 21 14C21 14.550781 21.449219 15 22 15C22.550781 15 23 14.550781 23 14C23 13.449219 22.550781 13 22 13 Z M 22 17C21.449219 17 21 17.449219 21 18C21 18.550781 21.449219 19 22 19C22.550781 19 23 18.550781 23 18C23 17.449219 22.550781 17 22 17 Z M 34 17C31.25 17 29 19.25 29 22C29 23.519531 29.703125 24.871094 30.78125 25.792969C28.539063 26.960938 27 29.304688 27 32L29 32C29 29.226563 31.226563 27 34 27C36.773438 27 39 29.226563 39 32L41 32C41 29.304688 39.460938 26.960938 37.21875 25.792969C38.296875 24.871094 39 23.519531 39 22C39 19.25 36.75 17 34 17 Z M 45 18L45 20L57 20L57 18 Z M 34 19C35.667969 19 37 20.332031 37 22C37 23.667969 35.667969 25 34 25C32.332031 25 31 23.667969 31 22C31 20.332031 32.332031 19 34 19 Z M 22 21C21.449219 21 21 21.449219 21 22C21 22.550781 21.449219 23 22 23C22.550781 23 23 22.550781 23 22C23 21.449219 22.550781 21 22 21 Z M 45 24L45 26L57 26L57 24 Z M 22 25C21.449219 25 21 25.449219 21 26C21 26.550781 21.449219 27 22 27C22.550781 27 23 26.550781 23 26C23 25.449219 22.550781 25 22 25 Z M 22 29C21.449219 29 21 29.449219 21 30C21 30.550781 21.449219 31 22 31C22.550781 31 23 30.550781 23 30C23 29.449219 22.550781 29 22 29 Z M 45 30L45 32L57 32L57 30 Z M 22 33C21.449219 33 21 33.449219 21 34C21 34.550781 21.449219 35 22 35C22.550781 35 23 34.550781 23 34C23 33.449219 22.550781 33 22 33 Z M 22 37C21.449219 37 21 37.449219 21 38C21 38.550781 21.449219 39 22 39C22.550781 39 23 38.550781 23 38C23 37.449219 22.550781 37 22 37 Z M 22 41C21.449219 41 21 41.449219 21 42C21 42.550781 21.449219 43 22 43C22.550781 43 23 42.550781 23 42C23 41.449219 22.550781 41 22 41 Z M 27 41L27 43L57 43L57 41 Z M 22 45C21.449219 45 21 45.449219 21 46C21 46.550781 21.449219 47 22 47C22.550781 47 23 46.550781 23 46C23 45.449219 22.550781 45 22 45 Z M 27 48L27 50L51 50L51 48 Z M 22 49C21.449219 49 21 49.449219 21 50C21 50.550781 21.449219 51 22 51C22.550781 51 23 50.550781 23 50C23 49.449219 22.550781 49 22 49 Z M 22 53C21.449219 53 21 53.449219 21 54C21 54.550781 21.449219 55 22 55C22.550781 55 23 54.550781 23 54C23 53.449219 22.550781 53 22 53 Z M 27 55L27 57L57 57L57 55 Z M 22 57C21.449219 57 21 57.449219 21 58C21 58.550781 21.449219 59 22 59C22.550781 59 23 58.550781 23 58C23 57.449219 22.550781 57 22 57 Z M 22 61C21.449219 61 21 61.449219 21 62C21 62.550781 21.449219 63 22 63C22.550781 63 23 62.550781 23 62C23 61.449219 22.550781 61 22 61 Z M 27 62L27 64L51 64L51 62 Z M 22 65C21.449219 65 21 65.449219 21 66C21 66.550781 21.449219 67 22 67C22.550781 67 23 66.550781 23 66C23 65.449219 22.550781 65 22 65Z"/></svg>