<?xml version="1.0" standalone="no"?>
<!DOCTYPE svg PUBLIC "-//W3C//DTD SVG 20010904//EN"
 "http://www.w3.org/TR/2001/REC-SVG-20010904/DTD/svg10.dtd">
<svg version="1.0" xmlns="http://www.w3.org/2000/svg"
 width="829.000000pt" height="739.000000pt" viewBox="0 0 829.000000 739.000000"
 preserveAspectRatio="xMidYMid meet">
<metadata>
Created by potrace 1.16, written by Peter Selinger 2001-2019
</metadata>
<g transform="translate(0.000000,739.000000) scale(0.100000,-0.100000)"
fill="#000000" stroke="none">
<path d="M267 7122 l-58 -59 4 -2359 c5 -2395 7 -2526 42 -2593 8 -16 29 -34
47 -41 66 -24 601 -30 2143 -24 l1560 6 44 42 c24 22 50 55 57 73 30 70 8 178
-49 231 -22 21 -27 21 -827 31 -443 6 -1174 13 -1625 17 l-820 6 75 68 c41 37
504 453 1029 926 524 472 963 866 975 876 21 16 25 13 176 -124 329 -297 412
-359 493 -366 51 -4 56 -2 123 48 38 29 157 128 264 219 107 92 203 172 212
180 22 17 11 27 373 -314 326 -306 374 -349 415 -370 34 -17 107 -20 147 -4
63 24 122 109 123 177 0 72 -28 104 -544 630 l-180 183 25 23 c111 107 1032
945 1624 1479 l350 315 3 -1128 2 -1128 51 -46 c55 -49 104 -64 182 -52 108
16 147 79 159 261 5 66 6 715 2 1441 l-7 1321 -63 57 -63 56 -3203 0 -3204 0
-57 -58z m5957 -358 c31 -11 114 65 -2200 -2021 l-502 -451 -28 30 c-16 17
-621 565 -1344 1218 -723 653 -1326 1199 -1340 1214 l-24 27 2704 -4 c1743 -2
2715 -7 2734 -13z m-5074 -869 c654 -589 964 -869 1050 -949 177 -164 340
-331 340 -347 0 -10 -156 -157 -367 -346 -203 -180 -631 -563 -951 -851 -321
-288 -587 -521 -590 -517 -16 16 -20 374 -21 1879 l-1 1619 43 -39 c23 -22
247 -224 497 -449z"/>
<path d="M6062 3459 c-182 -27 -493 -157 -666 -280 -111 -79 -308 -267 -392
-375 -152 -194 -272 -461 -318 -703 -25 -131 -23 -541 4 -671 49 -240 170
-497 340 -720 90 -118 269 -283 399 -368 583 -381 1315 -375 1901 13 126 83
343 296 434 424 118 165 247 459 285 646 5 28 15 116 22 197 14 161 3 372 -27
513 -50 237 -191 526 -350 715 -204 244 -426 405 -711 519 -213 84 -323 101
-633 100 -124 -1 -253 -6 -288 -10z m628 -417 c455 -108 852 -521 961 -997 32
-144 32 -406 0 -550 -57 -247 -176 -462 -355 -640 -112 -110 -207 -180 -339
-248 -179 -92 -317 -129 -532 -143 -338 -21 -679 103 -930 338 -217 203 -370
468 -417 723 -19 101 -16 419 5 517 22 108 88 271 154 380 172 287 418 490
718 593 143 49 191 55 430 51 176 -3 237 -8 305 -24z"/>
<path d="M6278 2603 c-18 -15 -138 -129 -267 -253 -269 -259 -477 -479 -498
-530 -17 -40 -12 -103 13 -156 20 -42 93 -91 148 -99 74 -11 120 20 318 213
l178 175 0 -460 0 -459 48 -46 c62 -60 79 -68 152 -68 73 0 90 8 153 68 l47
46 0 455 0 454 168 -165 c172 -168 227 -208 291 -208 120 0 211 92 211 214 0
39 -64 112 -369 419 -281 284 -385 379 -448 411 -50 25 -106 21 -145 -11z"/>
</g>
</svg>
