<?xml version="1.0" standalone="no"?>
<!DOCTYPE svg PUBLIC "-//W3C//DTD SVG 20010904//EN"
 "http://www.w3.org/TR/2001/REC-SVG-20010904/DTD/svg10.dtd">
<svg version="1.0" xmlns="http://www.w3.org/2000/svg"
 width="856.000000pt" height="760.000000pt" viewBox="0 0 856.000000 760.000000"
 preserveAspectRatio="xMidYMid meet">
<metadata>
Created by potrace 1.16, written by Peter Selinger 2001-2019
</metadata>
<g transform="translate(0.000000,760.000000) scale(0.100000,-0.100000)"
fill="#000000" stroke="none">
<path d="M1365 7261 c-760 -4 -1045 -9 -1060 -18 -40 -23 -66 -61 -77 -114 -7
-38 -12 -775 -15 -2468 l-4 -2414 58 -59 57 -58 1726 0 c1962 0 2219 6 2279
54 45 35 67 176 37 234 -27 51 -73 85 -128 95 -30 5 -840 11 -1840 14 l-1788
5 0 1971 0 1971 38 -36 c67 -64 2638 -2378 2722 -2450 62 -54 135 -83 184 -74
37 7 28 0 401 326 348 304 822 728 1755 1569 l725 654 7 -554 c5 -305 11 -818
14 -1142 l6 -587 57 -45 c79 -64 117 -74 189 -50 70 24 117 70 126 122 12 72
18 1807 8 2374 -11 629 -9 616 -78 645 -19 8 -97 20 -172 25 -159 13 -3602 19
-5227 10z m4894 -414 c-14 -12 -327 -294 -695 -627 -368 -333 -869 -785 -1114
-1005 -479 -430 -836 -751 -887 -798 -32 -29 -32 -30 -56 -11 -45 35 -1880
1692 -2446 2208 l-263 241 203 5 c112 3 1347 6 2744 7 l2540 2 -26 -22z"/>
<path d="M6520 3564 c-145 -13 -323 -53 -455 -101 -110 -40 -311 -147 -415
-221 -111 -79 -280 -244 -366 -357 -405 -535 -455 -1299 -121 -1866 152 -259
362 -478 599 -625 352 -217 818 -295 1248 -208 281 57 606 225 804 414 257
246 436 554 512 876 25 107 31 577 10 704 -31 179 -116 387 -237 582 -303 489
-821 787 -1394 802 -77 2 -160 2 -185 0z m246 -405 c60 -5 145 -19 190 -29
457 -106 839 -482 971 -956 26 -94 28 -110 28 -304 -1 -197 -2 -210 -32 -321
-80 -301 -249 -559 -482 -735 -103 -78 -311 -183 -434 -218 -135 -39 -278 -51
-443 -38 -297 25 -472 86 -670 235 -170 128 -334 320 -424 497 -36 70 -77 199
-100 311 -19 92 -21 126 -17 299 5 204 18 275 76 430 31 83 116 225 185 310
259 318 555 488 906 520 126 11 127 11 246 -1z"/>
<path d="M6565 2691 c-22 -11 -53 -30 -70 -44 l-30 -25 -10 -466 -10 -466
-171 162 c-97 92 -191 173 -216 186 -120 59 -247 -9 -263 -143 -13 -101 -15
-98 364 -475 201 -202 371 -362 406 -385 75 -49 123 -52 187 -10 54 34 657
639 718 719 43 57 45 62 45 126 0 57 -4 72 -27 102 -34 45 -88 71 -158 76 -51
4 -60 1 -112 -34 -31 -22 -122 -101 -203 -177 -81 -76 -149 -137 -150 -135 -2
2 -9 183 -14 403 -6 220 -14 424 -17 454 -8 61 -47 115 -101 137 -46 20 -121
17 -168 -5z"/>
</g>
</svg>
