<?xml version="1.0"?>
<svg xmlns="http://www.w3.org/2000/svg" viewBox="0 0 50 50" enable-background="new 0 0 50 50">
    <path style="text-indent:0;text-align:start;line-height:normal;text-transform:none;block-progression:tb;-inkscape-font-specification:Bitstream Vera Sans" d="M 8.8125 2 A 1.0001 1.0001 0 0 0 8 3 L 8 11 A 1.0001 1.0001 0 0 0 8 11.09375 L 8 36 C 8 37.654545 6.6545455 39 5 39 C 4.9677024 39 4.9383044 39.001018 4.90625 39 C 3.296221 38.948885 2 37.622247 2 36 L 2 14 L 6 14 L 6 12 L 1 12 A 1.0001 1.0001 0 0 0 0 13 L 0 36 C 0 38.627278 2.0725429 40.786139 4.65625 40.96875 C 4.6667555 40.969493 4.6769774 40.968074 4.6875 40.96875 A 1.0043849 1.0043849 0 0 0 4.75 41 C 4.8344571 41.004316 4.9145384 41 5 41 L 25 41 A 1.0001 1.0001 0 1 0 25 39 L 8.96875 39 C 9.6104788 38.158989 10 37.130812 10 36 L 10 11.15625 A 1.0001 1.0001 0 0 0 10 11 L 10 10 L 10 4 L 44 4 L 44 25 A 1.0001 1.0001 0 1 0 46 25 L 46 3 A 1.0001 1.0001 0 0 0 45 2 L 9 2 A 1.0001 1.0001 0 0 0 8.90625 2 A 1.0001 1.0001 0 0 0 8.8125 2 z M 16 10 L 16 12 L 38 12 L 38 10 L 16 10 z M 16 14 L 16 16 L 38 16 L 38 14 L 16 14 z M 16 22 L 16 24 L 26 24 L 26 22 L 16 22 z M 28 22 L 28 24 L 38 24 L 38 22 L 28 22 z M 16 26 L 16 28 L 26 28 L 26 26 L 16 26 z M 28 26 L 28 28 L 30 28 L 33 26 L 28 26 z M 39 26.90625 C 32.954545 26.90625 28 31.860795 28 37.90625 C 28 43.951705 32.954545 48.90625 39 48.90625 C 45.045455 48.90625 50 43.951705 50 37.90625 C 50 31.860795 45.045455 26.90625 39 26.90625 z M 39 28.90625 C 41.111931 28.90625 43.055095 29.647807 44.59375 30.875 L 31.96875 43.5 C 30.741557 41.961345 30 40.018181 30 37.90625 C 30 32.951705 34.045455 28.90625 39 28.90625 z M 16 30 L 16 32 L 26 32 L 26 30 L 16 30 z M 46.03125 32.28125 C 47.267684 33.822901 48 35.785506 48 37.90625 C 48 42.860795 43.954545 46.90625 39 46.90625 C 36.879256 46.90625 34.916651 46.173934 33.375 44.9375 L 46.03125 32.28125 z M 16 34 L 16 36 L 26 36 L 26 34 L 16 34 z"/>
</svg>
