<svg xmlns="http://www.w3.org/2000/svg" viewBox="0 0 50 50"><path d="M46.40625 0.1875C46.085938 0.210938 45.757813 0.277344 45.4375 0.34375C44.15625 0.617188 42.78125 1.210938 41.4375 1.90625C38.765625 3.289063 36.34375 5.039063 35.3125 6.125L35.28125 6.125L28.53125 12.84375L4.53125 9.59375C4.214844 9.558594 3.902344 9.675781 3.6875 9.90625L0.28125 13.40625C0.0507813 13.644531 -0.0507813 13.984375 0.0195313 14.308594C0.0898438 14.636719 0.316406 14.90625 0.625 15.03125L19.125 22.28125L9.59375 32L5 32C4.757813 32 4.523438 32.089844 4.34375 32.25L0.34375 35.625C0.046875 35.867188 -0.0859375 36.253906 0 36.625C0.0859375 37 0.378906 37.289063 0.75 37.375L10.28125 39.71875L12.625 49.25C12.710938 49.585938 12.96875 49.851563 13.296875 49.953125C13.628906 50.054688 13.988281 49.976563 14.25 49.75L17.65625 46.75C17.875 46.5625 18 46.289063 18 46L18 40.40625L27.8125 30.875L34.96875 49.375C35.09375 49.683594 35.363281 49.910156 35.691406 49.980469C36.015625 50.050781 36.355469 49.949219 36.59375 49.71875L40.09375 46.3125C40.324219 46.097656 40.441406 45.785156 40.40625 45.46875L37.15625 21.46875L43.90625 14.71875C44.945313 13.679688 46.707031 11.203125 48.09375 8.53125C48.789063 7.195313 49.382813 5.835938 49.65625 4.5625C49.929688 3.289063 49.933594 1.945313 49.03125 1C49.019531 0.988281 49.011719 0.980469 49 0.96875C48.527344 0.515625 47.957031 0.296875 47.34375 0.21875C47.039063 0.179688 46.726563 0.164063 46.40625 0.1875 Z M 46.5 2.21875C47.070313 2.179688 47.402344 2.296875 47.5625 2.4375C47.753906 2.652344 47.894531 3.191406 47.6875 4.15625C47.476563 5.136719 46.957031 6.386719 46.3125 7.625C45.023438 10.105469 43.164063 12.617188 42.5 13.28125L35.40625 20.40625C35.183594 20.613281 35.070313 20.914063 35.09375 21.21875L38.34375 45.25L36.3125 47.21875L29.125 28.75C29.007813 28.4375 28.738281 28.203125 28.414063 28.125C28.085938 28.050781 27.742188 28.144531 27.5 28.375L16.3125 39.28125C16.113281 39.46875 16.003906 39.726563 16 40L16 45.5625L14.15625 47.15625L12.0625 38.65625C11.972656 38.304688 11.695313 38.027344 11.34375 37.9375L3.125 35.90625L5.375 34L10 34C10.273438 33.996094 10.53125 33.886719 10.71875 33.6875L21.625 22.59375C21.855469 22.351563 21.949219 22.007813 21.875 21.679688C21.796875 21.355469 21.5625 21.085938 21.25 20.96875L2.78125 13.71875L4.75 11.65625L28.78125 14.90625C29.085938 14.929688 29.386719 14.816406 29.59375 14.59375L36.71875 7.5C37.296875 6.886719 39.851563 4.976563 42.34375 3.6875C43.589844 3.042969 44.855469 2.523438 45.84375 2.3125C46.085938 2.261719 46.308594 2.230469 46.5 2.21875Z"/></svg>